SplineFontDB: 3.0
FontName: JonesOldstyle
FullName: Jones Oldstyle
FamilyName: Jones Oldstyle
Weight: Regular
Copyright: Created by trashman with FontForge 2.0 (http://fontforge.sf.net)
UComments: "Scan 6400, cut 1200, no scaling.+AAoA-Or cut 1250, scale 104.2%.+AAoA-Print at 14pt to match original size (DOUBLE CHECK THIS......)" 
Version: 0.1
ItalicAngle: 0
UnderlinePosition: -100
UnderlineWidth: 50
Ascent: 672
Descent: 328
LayerCount: 3
Layer: 0 0 "Back"  1
Layer: 1 0 "Fore"  0
Layer: 2 0 "backup"  0
NeedsXUIDChange: 1
XUID: [1021 658 797806517 11461781]
OS2Version: 0
OS2_WeightWidthSlopeOnly: 0
OS2_UseTypoMetrics: 1
CreationTime: 1288472788
ModificationTime: 1291015119
OS2TypoAscent: 0
OS2TypoAOffset: 1
OS2TypoDescent: 0
OS2TypoDOffset: 1
OS2TypoLinegap: 0
OS2WinAscent: 0
OS2WinAOffset: 1
OS2WinDescent: 0
OS2WinDOffset: 1
HheadAscent: 0
HheadAOffset: 1
HheadDescent: 0
HheadDOffset: 1
OS2Vendor: 'PfEd'
MarkAttachClasses: 1
DEI: 91125
Encoding: UnicodeBmp
UnicodeInterp: none
NameList: Adobe Glyph List
DisplaySize: -48
AntiAlias: 1
FitToEm: 1
WinInfo: 108 12 4
BeginPrivate: 9
BlueValues 7 [-12 0]
OtherBlues 2 []
BlueScale 8 0.039625
BlueShift 1 7
BlueFuzz 1 0
StdHW 4 [36]
StemSnapH 28 [20 25 30 36 44 48 63 79 86]
StdVW 4 [66]
StemSnapV 28 [65 66 68 71 72 75 78 80 84]
EndPrivate
BeginChars: 65537 84

StartChar: a
Encoding: 97 97 0
Width: 364
VWidth: 0
Flags: HW
HStem: -10 47<88.5 194.686 270 337.28> 329 40<130.874 215.384>
VStem: 28 78<44.3047 113.218> 39 88<262.215 307.223> 230 62<45.8875 160.999 181.616 317.1>
LayerCount: 3
Fore
SplineSet
169 327 m 0
 143.57050851 327 131 318 120 312 c 1
 120 312 120 287 110 270 c 0
 102 257 87 243 64 243 c 0
 47 243 41 254 41 261 c 0
 41 298 124 362 208 362 c 0
 264 362 291 339 291 262 c 0
 291 205 288 118 288 91 c 0
 288 68 290 43 310 43 c 0
 324 43 336 54 342 54 c 0
 347 54 348 50 348 45 c 0
 348 21 316 -9 289 -9 c 0
 251 -9 237 15 232 44 c 1
 206 18 171 -10 109 -10 c 0
 62 -10 33 24 33 64 c 0
 33 118 95 141 146 158 c 2
 232 186 l 1
 232 268 230 327 169 327 c 0
105 89 m 0
 105 51 129 33 165 33 c 0
 204 33 232 61 232 61 c 1
 232 169 l 1
 232 169 182 153 150 140 c 0
 112 125 105 104 105 89 c 0
EndSplineSet
EndChar

StartChar: b
Encoding: 98 98 1
Width: 445
VWidth: 10
Flags: HW
HStem: -3 29<166.027 272.68> 5 21G<62 70.5> 340 34<172.336 272.927>
VStem: 63 58<60.9202 318.859 342.355 564.411> 350 66<97.6526 263.286>
LayerCount: 3
Fore
SplineSet
412 184 m 0
 412 100 360 -10 217 -10 c 0
 159 -10 108 16 100 16 c 0
 79 16 78 -2 60 -2 c 0
 54 -2 52 2 52 10 c 0
 52 17 57 51 57 71 c 0
 59 229 61 393 61 554 c 0
 61 587 58 600 26 612 c 0
 18 615 14 619 14 623 c 0
 14 628 18 633 28 636 c 0
 55 644 85 654 105 662 c 0
 109 663 113 664 116 664 c 4
 122 664 125 661 125 649 c 0
 125 632 115 347 115 325 c 0
 115 317 115 316 121 320 c 0
 145 337 192 365 239 365 c 0
 334 365 412 281 412 184 c 0
220 17 m 0
 296 17 347 97 347 170 c 0
 347 256 293 333 210 333 c 0
 157 333 115 293 115 293 c 1
 115 180 l 2
 115 94 116 17 220 17 c 0
EndSplineSet
EndChar

StartChar: c
Encoding: 99 99 2
Width: 362
VWidth: -3
Flags: HW
HStem: -18 45<153.158 287.664> 327 35<146.834 262.709>
VStem: 21 61<100.775 254.837>
LayerCount: 3
Fore
SplineSet
334 318 m 0
 334 300 324 291 305 291 c 0
 285 291 268 310 253 318 c 0
 241 324 229 327 210 327 c 0
 127 327 85 260 85 183 c 0
 85 94 147 34 226 34 c 0
 290 34 311 66 323 66 c 0
 329 66 331 59 331 55 c 0
 331 22 270 -14 202 -14 c 0
 96 -14 18 46 18 159 c 0
 18 275 100 362 230 362 c 0
 269 362 334 355 334 318 c 0
EndSplineSet
EndChar

StartChar: d
Encoding: 100 100 3
Width: 445
VWidth: -5
Flags: HW
HStem: -14 39<143.498 257.321> 322 27<172.144 271.609>
VStem: 28 68<75.8731 237.919> 313 62<34.0037 37 50.309 291.836 341.554 593.25>
LayerCount: 3
Fore
SplineSet
288 35 m 0
 258 11 230 -13 163 -13 c 0
 65 -13 17 63 17 150 c 0
 17 268 111 350 228 350 c 0
 260 350 273 341 293 333 c 0
 301 330 302 328 302 342 c 2
 302 563 l 2
 302 587 290 592 275 595 c 0
 265 597 254 598 254 607 c 0
 254 612 257 615 263 618 c 0
 286 630 346 663 354 663 c 0
 361 663 363 657 363 642 c 0
 363 610 364 106 364 61 c 0
 364 44 367 39 373 39 c 0
 383 39 404 51 409 51 c 0
 413 51 416 45 416 32 c 0
 416 27 413 22 409 20 c 0
 382 9 318 -21 312 -21 c 0
 304 -21 302 -18 302 -10 c 0
 302 1 304 26 304 33 c 0
 304 51 296 42 288 35 c 0
213 323 m 0
 144 323 83 252 83 172 c 0
 83 88 115 23 197 23 c 0
 251 23 302 66 302 66 c 1
 302 235 l 2
 302 295 262 323 213 323 c 0
EndSplineSet
Layer: 2
SplineSet
288 35 m 4
 258 11 230 -13 163 -13 c 4
 65 -13 17 63 17 150 c 4
 17 268 111 350 228 350 c 4
 260 350 273 341 293 333 c 4
 301 330 302 328 302 342 c 6
 302 561 l 6
 302 587 290 591 275 593 c 4
 265 594 253 594 252 603 c 4
 251 613 257 616 263 619 c 4
 289 633 344 660 349 660 c 4
 358 660 363 658 363 640 c 4
 363 608 364 106 364 61 c 4
 364 44 367 39 373 39 c 4
 383 39 404 51 409 51 c 4
 413 51 416 45 416 32 c 4
 416 27 413 22 409 20 c 4
 382 9 316 -21 310 -21 c 4
 302 -21 300 -18 300 -10 c 4
 300 1 304 26 304 33 c 4
 304 51 296 42 288 35 c 4
213 323 m 4
 144 323 83 252 83 172 c 4
 83 88 115 23 197 23 c 4
 251 23 302 66 302 66 c 5
 302 235 l 6
 302 295 262 323 213 323 c 4
EndSplineSet
EndChar

StartChar: e
Encoding: 101 101 4
Width: 376
VWidth: 0
Flags: HW
HStem: -12 45<150.376 289.778> 236 22<109.001 258.271> 338 27<156.318 252.777>
VStem: 26 62<101.067 234.433> 270 66<243.5 320.151>
LayerCount: 3
Fore
SplineSet
26 172 m 0
 26 283 98 365 214 365 c 0
 311 365 336 300 336 248 c 0
 336 239 327 233 319 233 c 2
 103 236 l 2
 91 236 88 217 88 194 c 0
 88 112 130 33 223 33 c 0
 279 33 310 58 323 71 c 0
 327 75 331 78 335 78 c 0
 338 78 342 75 342 70 c 0
 342 67 341 64 339 60 c 0
 326 31 271 -12 199 -12 c 0
 87 -12 26 63 26 172 c 0
124 255 m 2
 226 257 l 2
 258 258 270 279 270 291 c 0
 270 318 241 336 209 336 c 0
 135 336 110 281 110 264 c 0
 110 257 111 255 124 255 c 2
EndSplineSet
EndChar

StartChar: f
Encoding: 102 102 5
Width: 285
VWidth: 0
Flags: HW
HStem: -3 33<20.4565 75.666 144.293 246.977> 322 32<131 258.999> 619 51<150.44 258.916>
VStem: 75 56<36.9089 317 354.052 579.829>
LayerCount: 3
Fore
SplineSet
242 603 m 0
 226 603 214 608 204 613 c 0
 195 618 187 619 180 619 c 0
 143 619 131 559 131 506 c 2
 131 354 l 1
 250 354 l 2
 258 354 259 350 259 338 c 0
 259 327 259 322 251 322 c 2
 131 322 l 1
 136 93 l 2
 137 34 138 33 184 33 c 2
 199 33 l 2
 221 33 247 33 247 13 c 0
 247 4 245 -3 219 -3 c 0
 188 -3 140 0 112 0 c 0
 88 0 59 -3 40 -3 c 0
 26 -3 20 0 20 10 c 0
 20 24 38 25 52 27 c 0
 69 30 76 40 76 50 c 2
 75 301 l 2
 75 317 75 317 61 317 c 2
 41 317 l 2
 27 317 27 322 27 327 c 0
 27 342 55 345 69 349 c 0
 77 352 75 356 75 368 c 0
 75 385 73 424 73 437 c 0
 73 534 92 598 138 639 c 0
 156 655 186 672 225 672 c 0
 250 672 280 662 280 634 c 0
 280 611 257 603 242 603 c 0
EndSplineSet
EndChar

StartChar: g
Encoding: 103 103 6
Width: 472
VWidth: 0
Flags: HW
HStem: -304 38<153.009 289.165> -71 65<125.305 359.139> 86 22<172.734 257.404> 289 53<353.243 462> 302 35<352 440.703> 336 32<166.166 266.621>
VStem: 34 62<-219.58 -145.828> 49 65<-20.5 36.6335> 58 62<154.993 293.796> 306 60<156.389 300.724> 370 59<-183.745 -84.5949>
DStem2: 112 64 144 66 0.787938 0.615755<-17.3525 52.354>
LayerCount: 3
Fore
SplineSet
212 86 m 0xe8e0
 200 86 184 88 176 89 c 1
 176 89 161 81 144 66 c 0
 130 54 114 36 114 28 c 0xe960
 114 0 138 -6 206 -6 c 2
 320 -6 l 2
 391 -6 429 -39 429 -99 c 0
 429 -224 309 -304 191 -304 c 0
 119 -304 34 -275 34 -202 c 0xea60
 34 -154 88 -110 124 -70 c 1
 97 -64 49 -41 49 0 c 0xe960
 49 30 84 46 112 64 c 0
 143 84 155 94 155 94 c 1
 120 112 58 149 58 227 c 0
 58 295 122 368 216 368 c 0xe4e0
 291 368 325 337 336 337 c 0xe8e0
 345 337 436 342 441 342 c 0
 458 342 462 340 462 324 c 2
 462 304 l 2
 462 291 451 289 444 289 c 0xf0e0
 437 289 357 302 353 302 c 0
 352 302 352 301 352 300 c 0
 352 294 366 272 366 236 c 0
 366 144 296 86 212 86 c 0xe8e0
370 -124 m 0
 370 -79 329 -71 278 -71 c 2
 148 -71 l 1
 124 -93 96 -114 96 -170 c 0xe260
 96 -221 161 -266 222 -266 c 0
 291 -266 370 -221 370 -124 c 0
213 108 m 0
 275 108 306 150 306 227 c 0
 306 286 277 336 216 336 c 0
 153 336 120 276 120 220 c 0xe4e0
 120 167 152 108 213 108 c 0
EndSplineSet
EndChar

StartChar: h
Encoding: 104 104 7
Width: 471
VWidth: 0
Flags: HW
HStem: -2 28<30.0844 74.1543 143.822 214.941 288.039 334.25 409.34 456.907> 324 38<211.899 308.943>
VStem: 76 59<30.4375 285.636 298.236 594.612> 342 61<30.1875 290.913>
LayerCount: 3
Fore
SplineSet
258 324 m 0
 187 324 135 266 135 266 c 1
 135 173 l 2
 135 143 135 114 136 83 c 0
 138 26 146 30 196 26 c 0
 205 25 215 22 215 11 c 0
 215 0 206 -2 192 -2 c 0
 178 -2 127 0 108 0 c 0
 89 0 64 -2 49 -2 c 0
 38 -2 30 0 30 11 c 0
 30 22 43 21 56 26 c 0
 73 32 76 36 76 58 c 0
 76 215 76 375 75 531 c 0
 75 580 74 588 33 605 c 0
 28 607 24 612 24 616 c 0
 24 619 27 623 32 625 c 0
 85 641 121 662 130 662 c 0
 135 662 137 651 137 646 c 0
 137 624 133 319 133 297 c 0
 133 291 135 292 139 294 c 0
 175 320 219 362 285 362 c 0
 361 362 400 325 401 244 c 2
 403 78 l 2
 403 32 412 31 444 27 c 0
 452 26 457 21 457 14 c 0
 457 2 449 -2 435 -2 c 0
 421 -2 394 0 375 0 c 0
 356 0 324 -2 309 -2 c 0
 298 -2 288 0 288 11 c 0
 288 21 294 24 304 25 c 0
 334 28 342 43 342 78 c 2
 342 160 l 2
 342 250 334 324 258 324 c 0
EndSplineSet
EndChar

StartChar: i
Encoding: 105 105 8
Width: 225
VWidth: 0
Flags: HW
HStem: -2 29<31.6785 71.8066 141.475 186.394> 576 79<72.393 143.607>
VStem: 68 80<580.181 650.607> 75 60<28 302.261>
LayerCount: 3
Fore
SplineSet
40 326 m 0xd0
 63 337 92 355 116 374 c 0
 120 377 124 379 127 379 c 0
 131 379 135 375 135 365 c 2
 133 74 l 2
 133 46 150 30 164 26 c 0
 186 20 190 16 190 8 c 0
 190 2 184 -2 176 -2 c 0
 154 -2 133 0 107 0 c 0
 90 0 60 -2 55 -2 c 0
 43 -2 31 -2 31 9 c 0
 31 20 45 21 58 27 c 0
 74 34 74 43 74 78 c 0
 74 141 75 209 75 270 c 0
 75 297 66 302 43 306 c 0
 27 309 29 321 40 326 c 0xd0
68 615 m 4xe0
 68 637 86 655 108 655 c 4
 130 655 148 637 148 615 c 4
 148 593 130 576 108 576 c 4
 86 576 68 593 68 615 c 4xe0
EndSplineSet
EndChar

StartChar: j
Encoding: 106 106 9
Width: 207
VWidth: 0
Flags: HW
HStem: -228 50<2 53.5938> 576 79<72.393 143.607>
VStem: 68 80<580.181 650.607> 76 61<-123.033 313.266>
LayerCount: 3
Fore
SplineSet
68 615 m 0xe0
 68 637 86 655 108 655 c 0
 130 655 148 637 148 615 c 0
 148 593 130 576 108 576 c 0
 86 576 68 593 68 615 c 0xe0
45 316 m 0
 33 318 28 320 28 326 c 0
 28 329 30 333 38 336 c 0
 102 359 127 377 131 377 c 0
 134 377 140 375 140 371 c 0
 140 338 137 319 137 295 c 2
 137 2 l 2
 137 -94 116 -132 82 -179 c 0
 53 -219 37 -228 10 -228 c 0
 2 -228 2 -227 2 -211 c 2
 2 -193 l 2
 2 -180 6 -178 12 -178 c 2
 33 -178 l 2
 48 -178 50 -170 57 -147 c 0
 67 -116 76 -61 76 35 c 2
 76 168 l 2xd0
 76 301 71 311 45 316 c 0
EndSplineSet
EndChar

StartChar: k
Encoding: 107 107 10
Width: 471
VWidth: 0
Flags: HW
HStem: -2 25<36.065 76.3938 147 190.985 277.015 306.681 404.687 452.985> 325 25<258.093 293.974 361.921 407.885>
VStem: 86 56<26.4429 155.312 164.003 603.62> 294 114<298.5 345>
DStem2: 251 194 207 158 0.67413 -0.738612<-21.1781 151.218>
LayerCount: 3
Fore
SplineSet
133 662 m 0
 141 662 147 655 146 645 c 0
 142 579 142 556 142 416 c 2
 142 181 l 2
 142 168 141 164 144 164 c 0
 150 164 167 180 170 183 c 0
 201 210 294 285 294 312 c 0
 294 318 285 323 278 325 c 0
 266 328 258 329 258 339 c 0
 258 350 269 350 280 350 c 0
 289 350 317 349 331 349 c 0
 347 349 379 352 387 352 c 0
 398 352 408 351 408 339 c 0
 408 330 400 326 391 324 c 0
 382 322 362 314 349 304 c 0
 320 284 284 255 253 226 c 0
 245 219 238 214 238 211 c 0
 238 207 244 202 251 194 c 2
 366 68 l 2
 391 41 408 30 440 23 c 0
 448 21 453 18 453 11 c 0
 453 -1 445 -2 431 -2 c 0
 417 -2 387 0 368 0 c 0
 349 0 312 -2 297 -2 c 0
 286 -2 277 0 277 11 c 0
 277 17 282 22 292 24 c 0
 306 27 307 33 307 40 c 0
 307 48 301 56 294 63 c 2
 207 158 l 2
 200 166 194 173 190 173 c 0
 187 173 185 171 178 166 c 2
 151 144 l 2
 141 136 136 133 136 114 c 2
 136 69 l 2
 136 36 151 27 179 23 c 0
 186 22 191 18 191 11 c 0
 191 -1 182 -2 168 -2 c 0
 154 -2 123 0 110 0 c 0
 91 0 72 -2 57 -2 c 0
 46 -2 36 -2 36 9 c 0
 36 19 41 20 51 22 c 0
 82 28 83 44 83 72 c 0
 85 182 86 282 86 385 c 0
 86 442 85 499 85 561 c 0
 85 596 73 602 47 611 c 0
 38 614 39 624 51 628 c 0
 94 643 125 662 133 662 c 0
EndSplineSet
EndChar

StartChar: l
Encoding: 108 108 11
Width: 234
VWidth: -2
Flags: HW
HStem: -2 29<25.3804 82.756 154.348 207.872>
VStem: 85 64<30.7854 602.997>
LayerCount: 3
Fore
SplineSet
151 67 m 0
 151 29 168 31 196 25 c 0
 202 24 209 18 209 11 c 0
 209 -1 201 -2 187 -2 c 0
 176 -2 160 0 118 0 c 0
 99 0 62 -4 47 -4 c 0
 36 -4 27 -2 27 9 c 0
 27 19 32 25 42 27 c 0
 84 35 87 37 87 58 c 0
 87 255 83 380 83 569 c 0
 83 594 70 600 48 610 c 0
 40 613 37 617 37 621 c 0
 37 627 45 631 56 635 c 0
 84 644 132 664 139 664 c 0
 143 664 149 662 149 652 c 0
 149 456 150 260 151 67 c 0
EndSplineSet
EndChar

StartChar: m
Encoding: 109 109 12
Width: 715
VWidth: 0
Flags: HW
HStem: -2 29<13.052 59.2233 136.644 188.941 261.07 314.418 382.596 436.907 512.07 565.516 638.624 686.838> 326 36<200.227 292.267 460.341 541.092>
VStem: 69 62<32.6486 296.421> 320 60<30.3663 289.816> 574 59<31.5 297.837>
LayerCount: 3
Fore
SplineSet
320 210 m 2
 320 278 312 326 229 326 c 0
 175 326 131 278 131 278 c 1
 130 212 129 147 129 81 c 0
 129 34 141 32 174 27 c 0
 186 25 189 18 189 11 c 0
 189 -2 180 -2 163 -2 c 0
 149 -2 122 0 103 0 c 0
 84 0 57 -2 42 -2 c 0
 31 -2 13 0 13 11 c 0
 13 22 21 26 30 28 c 0
 60 33 67 42 67 81 c 0
 67 149 69 237 69 275 c 0
 69 297 61 299 46 308 c 0
 36 313 35 321 45 327 c 0
 74 344 99 362 114 374 c 0
 118 377 130 387 137 387 c 0
 141 387 143 385 143 378 c 0
 143 371 133 327 133 317 c 0
 133 305 135 304 140 308 c 0
 173 337 231 362 270 362 c 0
 354 362 375 290 375 290 c 1
 375 290 453 360 524 360 c 0
 620 360 632 305 632 272 c 2
 633 83 l 2
 633 37 637 32 674 25 c 0
 680 24 687 18 687 11 c 0
 687 -1 678 -2 665 -2 c 0
 651 -2 627 0 608 0 c 0
 589 0 548 -2 533 -2 c 0
 522 -2 512 0 512 11 c 0
 512 21 518 25 528 26 c 0
 570 31 574 42 574 99 c 2
 574 218 l 2
 574 278 560 320 492 320 c 0
 438 320 406 294 379 272 c 1
 379 272 381 232 381 216 c 2
 380 66 l 2
 380 24 390 31 420 26 c 0
 433 24 437 18 437 11 c 0
 437 -1 429 -2 415 -2 c 0
 401 -2 374 0 355 0 c 0
 336 0 296 -2 281 -2 c 0
 270 -2 261 0 261 11 c 0
 261 21 267 26 276 27 c 0
 317 32 320 30 320 99 c 2
 320 210 l 2
EndSplineSet
EndChar

StartChar: n
Encoding: 110 110 13
Width: 471
VWidth: 0
Flags: HW
HStem: -2 29<23.0843 63.8129 137.92 192.85 279.072 324.685 398.269 443.84> 324 40<195.558 298.447>
VStem: 71 59<28.8606 293.968> 334 59<29.2893 292.416>
LayerCount: 3
Fore
SplineSet
392 83 m 0
 392 47 399 29 418 26 c 0
 430 24 444 21 444 11 c 0
 444 -1 437 -2 423 -2 c 0
 409 -2 387 0 368 0 c 0
 349 0 314 -2 299 -2 c 0
 288 -2 279 0 279 11 c 0
 279 25 290 26 304 27 c 0
 332 30 332 63 333 99 c 0
 334 135 334 169 334 205 c 0
 334 242 332 270 313 292 c 0
 294 314 266 324 239 324 c 0
 176 324 130 277 130 277 c 1
 130 87 l 2
 130 48 139 29 159 27 c 0
 174 26 193 24 193 11 c 0
 193 -1 180 -2 163 -2 c 0
 149 -2 122 0 103 0 c 0
 84 0 62 -2 47 -2 c 0
 36 -2 23 0 23 11 c 0
 23 23 36 23 48 25 c 0
 68 28 69 63 69 97 c 0
 70 148 71 232 71 251 c 0
 71 290 64 299 48 309 c 0
 39 315 39 322 51 329 c 0
 73 342 93 355 108 366 c 0
 115 371 127 380 134 380 c 0
 138 380 140 378 140 371 c 0
 140 365 132 331 131 312 c 0
 130 297 138 302 148 310 c 0
 185 340 215 364 276 364 c 0
 374 364 393 297 393 216 c 0
 393 172 392 127 392 83 c 0
EndSplineSet
EndChar

StartChar: o
Encoding: 111 111 14
Width: 410
VWidth: 0
Flags: HW
HStem: -7 27<157.665 247.898> 331 31<156.849 253.419>
VStem: 26 65<86.3209 262.655> 310 70<85.0626 277.589>
LayerCount: 3
Fore
SplineSet
92 173 m 0
 92 100 131 19 205 19 c 0
 230 19 314 24 314 179 c 0
 314 268 277 332 204 332 c 0
 165 332 92 291 92 173 c 0
26 181 m 0
 26 289 114 363 210 363 c 0
 300 363 380 306 380 176 c 0
 380 68 304 -10 202 -10 c 0
 89 -10 26 78 26 181 c 0
EndSplineSet
EndChar

StartChar: p
Encoding: 112 112 15
Width: 455
VWidth: 0
Flags: W
HStem: -299 31<13.0291 70.375 146.537 211.594> -8 26<180.603 291.848> 330 36<195.703 296.596>
VStem: 77 62<-264.102 15 47.375 293.498> 361 67<99.5379 261.428>
LayerCount: 3
Fore
SplineSet
76 -225 m 0
 77 -180 77 155 77 227 c 0
 77 274 74 282 45 301 c 0
 35 307 36 313 45 318 c 0
 105 353 128 377 136 377 c 0
 139 377 144 375 144 368 c 0
 144 362 139 334 139 324 c 0
 139 314 143 319 150 323 c 0
 174 337 218 366 265 366 c 0
 349 366 428 323 428 190 c 0
 428 81 346 -8 231 -8 c 0
 195 -8 161 2 139 15 c 1
 139 -205 l 2
 139 -263 153 -263 175 -268 c 0
 189 -271 212 -273 212 -286 c 0
 212 -296 203 -299 189 -299 c 0
 183 -299 153 -296 108 -296 c 0
 78 -296 49 -299 37 -299 c 0
 23 -299 13 -295 13 -284 c 0
 13 -270 33.2764551555 -269.573532919 49 -266 c 0
 71 -261 75 -249 76 -225 c 0
361 172 m 0
 361 250 314 330 244 330 c 0
 181 330 151 304 139 295 c 1
 139 97 l 2
 139 70 164 18 231 18 c 0
 327 18 361 88 361 172 c 0
EndSplineSet
EndChar

StartChar: q
Encoding: 113 113 16
Width: 455
VWidth: 0
Flags: HW
HStem: -306 31<242.02 309.918 384.791 437.979> -10 36<162.056 275.055> 334 30<162.393 275.49>
VStem: 23 66<94.0876 263.615> 319 62<-270.211 20.2422 40.2383 302.529>
LayerCount: 3
Fore
SplineSet
234 26 m 0
 275 26 319 50 319 50 c 1
 319 243 l 2
 319 309 263 334 218 334 c 0
 137 334 89 256 89 178 c 0
 89 95 139 26 234 26 c 0
420 -275 m 0
 432 -276 438 -284 438 -291 c 0
 438 -298 431 -306 415 -306 c 0
 400 -306 364 -304 345 -304 c 0
 322 -304 276 -306 259 -306 c 0
 249 -306 242 -301 242 -291 c 0
 242 -284 247 -276 262 -275 c 0
 308 -271 313 -272 315 -226 c 0
 319 -144 319 -22 319 22 c 0
 319 33 314 32 307 27 c 0
 283 9 246 -10 199 -10 c 0
 82 -10 23 66 23 172 c 0
 23 285 104 364 234 364 c 0
 300 364 334 330 340 330 c 0
 349 330 352 337 359 348 c 0
 363 354 368 369 376 369 c 0
 380 369 386 368 386 358 c 0
 386 350 381 315 381 273 c 2
 381 -224 l 2
 381 -266 385 -272 420 -275 c 0
EndSplineSet
EndChar

StartChar: r
Encoding: 114 114 17
Width: 310
VWidth: 0
Flags: HW
HStem: -2 30<32.1152 62.7021 141.747 212.952> 299 60<186.849 280.67>
VStem: 71 62<33.8647 278.341 287.001 304.312>
LayerCount: 3
Fore
SplineSet
261 288 m 0
 237 288 221 299 196 299 c 0
 158 299 134 252 134 242 c 2
 134 74 l 2
 134 30 158 32 193 27 c 0
 207 25 213 20 213 12 c 0
 213 6 209 -2 195 -2 c 0
 173 -2 138 0 112 0 c 0
 105 0 71 -2 56 -2 c 0
 38 -2 33 1 33 8 c 0
 33 15 40 22 50 26 c 0
 69 33 73 56 73 85 c 2
 73 260 l 2
 73 293 70 300 47 306 c 0
 34 309 34 319 48 326 c 0
 85 344 124 383 135 383 c 0
 138 383 142 382 142 371 c 0
 142 360 133 316 133 291 c 0
 133 288 134 285 136 285 c 0
 138 285 170 317 173 320 c 0
 201 344 226 358 256 358 c 0
 270 358 298 351 298 321 c 0
 298 296 278 288 261 288 c 0
EndSplineSet
EndChar

StartChar: s
Encoding: 115 115 18
Width: 295
VWidth: -5
Flags: HW
HStem: -11 29<76.2743 176.806> -1 83<22.4426 55.8079> 284 74<221.25 251.798> 335 29<124.224 210.255>
VStem: 45 63<241.455 322.377> 199 59<34.7339 127.201>
LayerCount: 3
Fore
SplineSet
118 -9 m 4
 93 -9 68 -5 46 3 c 4
 26 10 18 15 18 23 c 4
 18 39 19 55 20 71 c 4x4c
 20 78 25 84 34 84 c 4x4c
 44 84 49 68 55 57 c 4
 68 34 93 20 120 20 c 4
 161 20 202 39 202 75 c 4
 202 159 44 167 44 269 c 4
 44 337 107 367 172 367 c 4
 190 367 209 363 227 359 c 4
 244 355 249 349 250 334 c 4
 250 324 251 314 251 304 c 4
 251 291 246 285 240 285 c 4
 235 285 230 288 227 294 c 4
 214 315 199 335 168 335 c 4
 132 335 105 315 105 288 c 4
 105 220 257 200 257 98 c 4
 257 26 192 -9 118 -9 c 4
EndSplineSet
EndChar

StartChar: t
Encoding: 116 116 19
Width: 312
VWidth: -2
Flags: HW
HStem: -10 49<149.552 253.241> 314 39<138.225 282.998>
VStem: 68 65<53.8892 307.877>
LayerCount: 3
Fore
SplineSet
63 89 m 2
 63 300 l 2
 63 309 62 312 55 312 c 2
 46 312 l 2
 32 312 29 317 29 324 c 0
 29 332 34 339 43 346 c 0
 65 364 91 400 100 415 c 0
 104 422 110 425 115 425 c 0
 122 425 126 419 126 408 c 2
 126 367 l 2
 126 358 126 357 134 357 c 2
 261 359 l 2
 270 359 270 356 270 338 c 0
 270 322 266 317 258 317 c 2
 134 315 l 2
 126 315 125 314 125 304 c 2
 125 125 l 2
 125 68 151 42 190 42 c 0
 212 42 234 51 249 58 c 0
 255 61 264 64 270 64 c 0
 275 64 278 60 278 55 c 0
 278 25 207 -5 164 -5 c 0
 107 -5 63 30 63 89 c 2
EndSplineSet
EndChar

StartChar: u
Encoding: 117 117 20
Width: 438
VWidth: 0
Flags: HW
HStem: -13 39<147.24 243.744> 319 28<19.0843 63.9096 258.007 306.109>
VStem: 64 66<41.6222 315.609> 68 69<104.422 350.815> 316 66<38.0051 44 63.365 312.234>
DStem2: 393 39 421 21 0.935948 0.352139<-6.81602 29.0299>
LayerCount: 3
Fore
SplineSet
265 319 m 0
 262 320 256 321 256 333 c 0
 256 345 264 345 280 346 c 0
 313 348 337 354 363 361 c 0
 366 362 369 363 371 363 c 0
 378 363 381 357 381 346 c 0
 381 333 376 167 376 60 c 0
 376 43 377 38 384 38 c 0
 387 38 401 44 411 48 c 0
 420 52 422 45 422 32 c 0
 422 28 418 26 414 25 c 0
 388 15 326 -14 316 -14 c 0
 312 -14 311 -12 311 -5 c 0
 312 6 314 29 315 49 c 0
 315 65 313 64 301 52 c 0
 268 19 224 -11 165 -11 c 0
 101 -11 66 24 66 105 c 2
 66 294 l 2
 66 315 52 317 24 321 c 0
 21 321 17 323 17 335 c 0
 17 346 32 346 44 347 c 0
 81 349 99 353 123 360 c 0
 125 361 127 361 129 361 c 0
 133 361 135 358 135 350 c 0
 130 276 129 183 129 97 c 0
 129 38 170 27 204 27 c 0
 267 27 316 88 316 88 c 1
 316 255 l 2
 316 299 315 305 265 319 c 0
EndSplineSet
EndChar

StartChar: v
Encoding: 118 118 21
Width: 423
VWidth: 0
Flags: HW
HStem: -12 21G<206 214.5> 327 27<13.0262 57.4887 137.142 175.988 282.093 321.537 371.523 405.381>
VStem: 322 84<307 347>
LayerCount: 3
Fore
SplineSet
58 313 m 0
 47 325 42 324 29 327 c 0
 19 329 13 333 13 341 c 0
 13 351 22 354 33 354 c 0
 41 354 58 352 96 352 c 0
 130 352 149 354 158 354 c 0
 168 354 176 351 176 340 c 0
 176 330 160 328 148 325 c 0
 141 323 137 322 137 310 c 0
 137 294 223 87 229 87 c 0
 233 87 295 226 316 286 c 0
 320 296 322 304 322 310 c 0
 322 319 314 324 302 328 c 0
 290 332 282 332 282 342 c 0
 282 353 293 354 304 354 c 0
 313 354 324 352 352 352 c 0
 374 352 385 354 393 354 c 0
 404 354 406 349 406 345 c 0
 406 336 401 333 391 330 c 0
 359 320 328 227 286 139 c 0
 263 90 243 39 226 -2 c 0
 223 -9 219 -12 210 -12 c 0
 202 -12 196 -9 193 -2 c 0
 153 97 76 292 58 313 c 0
EndSplineSet
EndChar

StartChar: w
Encoding: 119 119 22
Width: 631
VWidth: 0
Flags: HW
HStem: -12 93<206 229.908 424 446.67> 329 25<18.0262 67.8906 145.537 182.993 238.109 290.399 369.056 411.843 504.007 541.645 591.008 623.971>
VStem: 314 54<231.371 314.955> 543 81<304.5 344.5>
LayerCount: 3
Fore
SplineSet
76 306 m 0
 68 325 47 325 34 327 c 0
 24 329 18 333 18 341 c 0
 18 351 27 354 38 354 c 0
 46 354 58 352 96 352 c 0
 137 352 152 354 161 354 c 0
 176 354 183 352 183 341 c 0
 183 331 174 332 162 329 c 0
 149 326 145 320 145 312 c 0
 145 306 147 299 150 291 c 0
 168 234 225 81 228 81 c 0
 231 81 280 183 311 247 c 0
 313 252 314 256 314 260 c 0
 314 266 313 272 310 279 c 0
 298 307 298 326 254 329 c 0
 244 330 238 335 238 343 c 0
 238 353 247 354 258 354 c 0
 266 354 292 352 327 352 c 0
 370 352 381 354 398 354 c 0
 409 354 412 348 412 344 c 0
 412 333 406 331 396 330 c 0
 369 327 368 318 368 307 c 0
 368 284 440 84 446 84 c 0
 451 84 512 222 538 286 c 0
 541 293 543 301 543 308 c 0
 543 318 539 326 525 328 c 0
 513 330 504 331 504 341 c 0
 504 352 513 354 524 354 c 0
 533 354 542 352 566 352 c 0
 588 352 602 354 610 354 c 0
 621 354 624 349 624 342 c 0
 624 335 614 331 606 329 c 0
 581 322 547 233 507 146 c 0
 484 97 458 42 443 -1 c 0
 441 -8 437 -12 428 -12 c 0
 420 -12 414 -9 412 -2 c 0
 411 0 334 228 329 228 c 0
 326 228 291 155 261 89 c 0
 242 48 234 12 228 -2 c 0
 225 -9 219 -12 210 -12 c 0
 202 -12 197 -10 194 -3 c 0
 169 65 96 261 76 306 c 0
EndSplineSet
EndChar

StartChar: x
Encoding: 120 120 23
Width: 423
VWidth: 0
Flags: HWO
HStem: -2 28<6.04594 50.5105 116.04 151.941 357.41 400.918> 327 27<11.0262 62.9961 155.255 191.785 255.023 291.698 346.463 393.884>
VStem: 292 102<301.5 344>
DStem2: 215 218 178 178 0.633238 -0.773957<-109.863 5.99913 46.5765 171.439>
LayerCount: 3
Fore
SplineSet
231 11 m 0
 231 31 269 17 269 40 c 0
 269 53 225 117 207 138 c 0
 199 148 200 150 193 142 c 0
 172 118 116 55 116 41 c 0
 116 32 122 30 134 26 c 0
 146 22 152 19 152 11 c 0
 152 0 143 -2 132 -2 c 0
 123 -2 91 0 77 0 c 0
 61 0 31 -2 23 -2 c 0
 12 -2 6 0 6 11 c 0
 6 20 13 24 25 26 c 0
 58 32 141 117 180 163 c 0
 187 171 184 170 178 178 c 0
 119 257 88 296 63 314 c 0
 50 324 42 324 29 327 c 0
 19 329 11 333 11 341 c 0
 11 351 20 354 31 354 c 0
 39 354 71 352 106 352 c 0
 147 352 164 354 173 354 c 0
 188 354 192 352 192 343 c 0
 192 334 186 332 174 329 c 0
 165 327 155 321 155 311 c 0
 155 308 156 305 158 302 c 0
 169 282 203 234 215 218 c 0
 222 209 223 214 227 218 c 0
 248 239 292 293 292 310 c 0
 292 319 287 324 275 328 c 0
 263 332 255 331 255 341 c 0
 255 352 266 354 277 354 c 0
 286 354 296 352 325 352 c 0
 354 352 371 354 379 354 c 0
 394 354 394 346 394 342 c 0
 394 330 376 326 365 324 c 0
 341 320 297 262 241 198 c 0
 234 190 235 189 241 181 c 0
 297 107 332 64 353 44 c 0
 365 32 375 29 385 26 c 0
 395 23 401 17 401 11 c 0
 401 1 394 -2 381 -2 c 0
 373 -2 331 0 315 0 c 0
 301 0 262 -2 253 -2 c 0
 238 -2 231 0 231 11 c 0
EndSplineSet
EndChar

StartChar: y
Encoding: 121 121 24
Width: 465
VWidth: 0
Flags: HW
HStem: -306 73<21.0405 95.9973> 325 29<402.211 447.721> 332 22<21.0044 67.1339 152.64 199.993 324.059 355.029>
VStem: 358 90<307 347>
LayerCount: 3
Fore
SplineSet
37 332 m 0xb0
 27 333 21 335 21 343 c 0
 21 353 27 354 38 354 c 0
 46 354 66 352 106 352 c 0
 149 352 169 354 178 354 c 0
 193 354 200 354 200 343 c 0
 200 333 191 331 179 330 c 0
 154 327 151 324 151 312 c 0
 151 299 241 51 247 51 c 0
 252 51 358 302 358 312 c 0
 358 321 352 326 340 330 c 0
 329 334 324 337 324 344 c 0
 324 349 328 354 342 354 c 0xb0
 351 354 365 352 384 352 c 0
 406 352 423 354 431 354 c 0
 442 354 448 351 448 343 c 0
 448 326 433 328 423 325 c 0xd0
 410 321 404 318 390 289 c 2
 323 147 l 2
 291 79 259 10 225 -56 c 0
 179 -146 127 -242 96 -286 c 0
 87 -298 71 -306 57 -306 c 0
 31 -306 17 -286 17 -267 c 0
 17 -249 29 -233 53 -233 c 0
 66 -233 74 -238 78 -238 c 0
 88 -238 96 -228 103 -217 c 0
 136 -158 209 -22 209 -15 c 0
 209 -7 118 208 85 288 c 0
 72 320 68 328 37 332 c 0xb0
EndSplineSet
EndChar

StartChar: z
Encoding: 122 122 25
Width: 390
VWidth: 0
Flags: HW
HStem: 0 28<112.009 297.938> 330 24<114.144 274.993>
VStem: 275 80<307.251 340>
LayerCount: 3
Fore
SplineSet
76 354 m 2
 347 354 l 2
 355 354 358 350 358 346 c 0
 358 335 352 328 349 324 c 0
 305 270 112 46 112 33 c 0
 112 28 124 28 134 28 c 0
 242 28 264 32 285 37 c 0
 305 42 312 52 330 77 c 0
 333 82 337 90 343 90 c 0
 354 90 355 87 355 83 c 0
 355 69 350 48 347 7 c 0
 347 5 346 0 333 0 c 2
 26 0 l 2
 20 0 18 5 18 10 c 0
 18 13 21 16 22 18 c 0
 69 75 275 323 275 328 c 0
 275 330 265 330 253 330 c 2
 202 330 l 2
 173 330 145 328 119 320 c 0
 111 318 99 309 93 303 c 0
 79 289 74 270 64 270 c 0
 55 270 53 275 53 285 c 0
 53 290 57 323 59 343 c 0
 60 351 70 354 76 354 c 2
EndSplineSet
EndChar

StartChar: H
Encoding: 72 72 33
Width: 785
VWidth: 0
Flags: HW
HStem: -3 35<37.1441 92.2484 192.033 255.977 520.133 578.511 681.256 730.925> 294 44<184.004 596.757> 608 33<44.0476 80 198.015 258.885 530.048 589.75 687.689 735.884>
VStem: 101 82<38.5325 294 338 555.846> 108 76<133.247 294 338 598.625> 597 78<45.1378 293.972> 600 80<128.434 293.912 338.022 599.939>
LayerCount: 3
Fore
SplineSet
238 32 m 2xf4
 255 30 256 21 256 13 c 0
 256 3 248 -3 239 -3 c 0
 225 -3 186 0 149 0 c 0
 110 0 70 -3 56 -3 c 0
 45 -3 37 2 37 12 c 0
 37 25 45 30 55 31 c 2
 67 32 l 2
 105 35 100 88 101 126 c 0xf4
 104 281 108 410 108 563 c 0
 108 583 101 601 80 605 c 2
 59 608 l 2
 48 610 44 616 44 626 c 0
 44 637 57 641 68 641 c 0
 78 641 124 638 149 638 c 0
 186 638 220 641 244 641 c 0
 256 641 259 633 259 626 c 0
 259 616 249 613 240 611 c 0
 214 606 190 598 189 566 c 0
 187 487 184 422 184 357 c 0
 184 340 187 338 202 338 c 2
 576 338 l 2
 597 338 600 341 600 366 c 2
 603 555 l 2
 603 585 587 606 545 608 c 0
 534 609 530 616 530 626 c 0
 530 640 543 641 554 641 c 0
 564 641 614 638 639 638 c 0
 655 638 697 641 721 641 c 0
 733 641 736 633 736 626 c 0
 736 615 726 612 710 607 c 0
 692 601 681 589 680 566 c 0xea
 676 388 675 261 675 95 c 0
 675 59 677 34 715 28 c 0
 727 26 731 21 731 13 c 0
 731 3 726 -3 717 -3 c 0
 703 -3 671 0 634 0 c 0
 595 0 550 -3 536 -3 c 0
 525 -3 520 2 520 12 c 0
 520 25 527 27 536 29 c 0
 549 32 559 33 567 38 c 0
 592 54 591 88 593 126 c 0
 596 178 597 225 597 270 c 0
 597 293 595 294 570 294 c 2
 202 294 l 2
 184 294 183 292 183 273 c 2
 183 104 l 2
 183 70 183 38 220 34 c 2
 238 32 l 2xf4
EndSplineSet
EndChar

StartChar: I
Encoding: 73 73 34
Width: 303
VWidth: 0
Flags: HW
HStem: -3 31<42.0118 93.5705 194.222 252.985> 608 33<44.0476 80 198.964 258.919>
VStem: 108 80<34.9016 600.035>
LayerCount: 3
Fore
SplineSet
238 28 m 2
 250 27 253 21 253 13 c 0
 253 3 248 -3 239 -3 c 0
 225 -3 186 0 149 0 c 0
 110 0 71 -3 57 -3 c 0
 46 -3 42 2 42 12 c 0
 42 25 50 28 58 29 c 2
 70 30 l 2
 108 33 102 90 104 128 c 0
 108 211 108 278 108 350 c 2
 108 563 l 2
 108 583 101 601 80 605 c 2
 59 608 l 2
 48 610 44 616 44 626 c 0
 44 637 57 641 68 641 c 0
 78 641 124 638 149 638 c 0
 186 638 220 641 244 641 c 0
 256 641 259 633 259 626 c 0
 259 616 252 608 243 607 c 2
 226 605 l 2
 207 603 189 589 188 566 c 0
 184 389 183 277 183 104 c 0
 183 70 183 34 220 30 c 2
 238 28 l 2
EndSplineSet
EndChar

StartChar: J
Encoding: 74 74 35
Width: 308
VWidth: 0
Flags: HW
HStem: 607 34<46.0348 114.747 217.94 272.907>
VStem: 122 82<-41.395 598.599>
LayerCount: 3
Fore
SplineSet
122 563 m 0
 122 583 116 601 86 604 c 2
 60 607 l 2
 49 608 46 615 46 625 c 0
 46 636 58 641 69 641 c 0
 79 641 137 638 162 638 c 0
 199 638 233 641 257 641 c 0
 269 641 273 633 273 626 c 0
 273 616 268 609 256 607 c 2
 242 605 l 2
 223 603 204.666621073 585.996101764 204 529 c 0
 202 358 199 243 199 84 c 0
 199 40 198 -1 185 -37 c 0
 151 -131 62 -210 35 -211 c 0
 26 -211 18 -203 18 -193 c 0
 18 -186 29 -178 40 -167 c 0
 97 -113 116 -77 118 56 c 0
 121 231 122 389 122 563 c 0
EndSplineSet
EndChar

StartChar: L
Encoding: 76 76 37
Width: 539
VWidth: 0
Flags: HW
HStem: -8 21G<472 491> 0 34<46.4936 96.8831 205.42 452.868> 612 33<49.0476 98.526 194.675 255.863>
VStem: 104 79<51.376 602.802>
LayerCount: 3
Fore
SplineSet
149 0 m 2x70
 110 0 76 -3 62 -3 c 0
 53 -3 46 2 46 12 c 0
 46 27 56 30 70 33 c 0
 104 41 104 66 104 97 c 0
 104 261 105 401 105 567 c 0
 105 598 94 606 64 612 c 0
 53 614 49 620 49 630 c 0
 49 641 62 645 73 645 c 0
 83 645 124 642 149 642 c 0
 186 642 217 645 241 645 c 0
 253 645 256 637 256 630 c 0
 256 620 244 614 235 612 c 0
 209 607 185 600 185 570 c 0
 183 393 183 282 183 109 c 0
 183 49 213 39 262 36 c 0
 288 34 322 34 355 34 c 0
 379 34 401 36 420 39 c 0
 460 45 480 72 490 90 c 0
 495 97 499 103 505 103 c 0
 519 102 520 95 520 90 c 0
 520 79 504 28 498 0 c 0x70
 496 -7 493 -8 489 -8 c 0xb0
 455 -8 442 0 286 0 c 2
 149 0 l 2x70
EndSplineSet
EndChar

StartChar: zero
Encoding: 48 48 52
Width: 442
VWidth: 0
Flags: HW
HStem: -11 30<159.009 273.086> 341 33<160.31 280.705>
VStem: 23 68<87.8282 270.195> 348 70<89.6505 267.538>
LayerCount: 3
Fore
SplineSet
231 374 m 0
 330 374 418 285 418 181 c 0
 418 67 332 -11 215 -11 c 0
 104 -11 23 71 23 172 c 0
 23 308 122 374 231 374 c 0
348 177 m 0
 348 272 301 341 222 341 c 0
 128 341 91 257 91 175 c 0
 91 94 132 19 214 19 c 0
 299 19 348 91 348 177 c 0
EndSplineSet
EndChar

StartChar: one
Encoding: 49 49 53
Width: 306
VWidth: 0
Flags: HW
HStem: 233.2 110<161.081 252.518>
VStem: 151.8 110<242.482 333.918>
LayerCount: 3
Fore
SplineSet
130 284 m 0
 130 313 127 324 101 329 c 2
 85 332 l 2
 74 334 68 340 68 348 c 0
 68 361 77 362 91 362 c 0
 106 362 143 360 164 360 c 0
 185 360 225 362 241 362 c 0
 253 362 262 360 262 348 c 0
 262 337 247 335 238 334 c 2
 219 331 l 2
 200 328 198 304 198 278 c 0
 198 203 199 94 200 76 c 0
 202 47 202 36 228 31 c 2
 245 28 l 2
 256 26 260 20 260 12 c 0
 260 -1 250 -2 237 -2 c 0
 222 -2 186 0 165 0 c 0
 144 0 110 -2 94 -2 c 0
 82 -2 72 0 72 12 c 0
 72 23 77 27 88 28 c 2
 107 30 l 2
 123 32 132 53 132 79 c 0
 131 169 131 204 130 284 c 0
EndSplineSet
EndChar

StartChar: two
Encoding: 50 50 54
Width: 368
VWidth: 0
Flags: HW
HStem: 0 45.1<113.7 317.768> 324.5 45.1<100.014 222.248>
VStem: 242.4 64.9<199.423 305.321>
LayerCount: 3
Fore
SplineSet
309 263 m 0
 309 191 217 132 130 64 c 0
 117 54 104 48 118 48 c 2
 181 48 l 2
 207 48 240 49 262 51 c 0
 303 55 320 62 333 91 c 0
 337 100 338 109 347 108 c 0
 351 107 353 104 353 101 c 0
 353 95 342 38 336 9 c 0
 334 1 329 0 322 0 c 2
 44 0 l 2
 37 0 34 3 34 7 c 0
 34 17 43 23 48 27 c 0
 90 56 125 89 155 116 c 0
 206 162 238 202 238 257 c 0
 238 298 205 326 170 326 c 0
 114 326 78 300 42 256 c 0
 37 249 22 260 22 266 c 0
 22 279 90 369 180 369 c 0
 255 369 309 334 309 263 c 0
EndSplineSet
EndChar

StartChar: three
Encoding: 51 51 55
Width: 406
VWidth: 0
Flags: HW
HStem: 203 100<274.438 357.562>
VStem: 266 100<211.438 294.562>
LayerCount: 3
Fore
SplineSet
194 369 m 0
 259 369 319 335 319 257 c 0
 319 197 272 146 245 125 c 0
 237 119 232 116 232 113 c 0
 232 110 237 107 248 101 c 0
 288 79 353 38 353 -47 c 0
 353 -221 200 -295 116 -295 c 0
 108 -295 72 -294 46 -287 c 0
 28 -282 19 -273 19 -262 c 0
 19 -248 30 -235 46 -235 c 0
 65 -235 92 -260 126 -260 c 0
 216 -260 287 -167 287 -64 c 0
 287 6 248 57 132 67 c 0
 122 68 124 85 132 88 c 0
 215 114 257 163 257 241 c 0
 257 285 229 330 174 330 c 0
 135 330 102 309 85 298 c 0
 80 295 73 292 67 292 c 0
 61 292 55 296 55 306 c 0
 55 316 67 323 73 328 c 0
 105 354 143 369 194 369 c 0
EndSplineSet
EndChar

StartChar: four
Encoding: 52 52 56
Width: 478
VWidth: 0
Flags: HW
HStem: 0 44<85.0044 312.998 367.054 452>
VStem: 29 56<14.5 55.7583> 313 54<-278 -1.89999e-11 45.1053 303.993>
DStem2: 48 54 98 67 0.638927 0.769268<19.9416 355.632>
LayerCount: 3
Fore
SplineSet
347 383 m 2
 368 383 371 379 371 363 c 2
 366 58 l 2
 366 46 367 45 379 45 c 0
 389 45 435 47 441 47 c 0
 448 47 452 44 452 36 c 2
 452 9 l 2
 452 4 451 0 445 0 c 2
 386 0 l 2
 367 0 367 0 367 -19 c 2
 367 -248 l 2
 367 -272 364 -278 345 -278 c 2
 330 -278 l 2
 313 -278 308 -277 308 -256 c 0
 308 -175 313 -41 313 -13 c 0
 313 0 311 0 295 0 c 2
 55 0 l 2
 32 0 29 8 29 21 c 0
 29 35 39 43 48 54 c 2
 298 355 l 2
 309 369 320 383 333 383 c 2
 347 383 l 2
271 273 m 2
 98 67 l 2
 91 58 85 53 85 49 c 0
 85 45 91 44 110 44 c 2
 293 44 l 2
 312 44 313 46 313 63 c 2
 313 271 l 2
 313 295 310 304 304 304 c 0
 296 304 284 289 271 273 c 2
EndSplineSet
EndChar

StartChar: five
Encoding: 53 53 57
Width: 488
VWidth: 0
Flags: HW
HStem: -307 38<57.0332 163.029> 79 65<139.75 287.469> 299 61<155.609 388.794>
VStem: 128 11<160 334> 358 67<-131.837 14.9827>
LayerCount: 3
Fore
SplineSet
399 386 m 0
 410 386 407 371 404 363 c 0
 399 350 391 326 387 316 c 0
 381 299 378 299 355 299 c 2
 179 299 l 2
 155 299 158 293 155 273 c 2
 139 160 l 2
 137 144 134 143 151 144 c 0
 165 145 179 146 192 146 c 0
 332 146 425 81 425 -55 c 0
 425 -220 207 -307 74 -307 c 0
 62 -307 57 -298 57 -289 c 0
 57 -280 62 -270 71 -269 c 0
 184 -259 358 -191 358 -57 c 0
 358 11 316 79 182 79 c 0
 159 79 134 75 116 75 c 0
 103 75 100 85 100 94 c 0
 100 98 101 102 101 105 c 2
 128 334 l 2
 131 358 133 360 153 360 c 2
 360 360 l 2
 371 360 374 361 382 373 c 0
 385 378 393 386 399 386 c 0
EndSplineSet
EndChar

StartChar: six
Encoding: 54 54 58
Width: 516
VWidth: 0
Flags: HW
HStem: -12 30<200.829 305.964> 339 25<216.08 314.651> 633 37<385.062 463.856>
VStem: 64 71<113.649 372.841> 382 65<95.0686 276.757>
LayerCount: 3
Fore
SplineSet
447 190 m 0
 447 74 365 -12 259 -12 c 0
 106 -12 64 125 64 256 c 0
 64 446 240 660 452 670 c 0
 460 670 464 659 464 648 c 0
 464 639 461 634 454 633 c 0
 372 622 312 588 266 545 c 0
 200 483 163 402 148 343 c 0
 146 332 143 323 143 318 c 0
 143 315 144 314 146 314 c 0
 148 314 152 317 160 322 c 0
 186 341 231 364 280 364 c 0
 366 364 447 313 447 190 c 0
268 338 m 0
 188 338 135 265 135 183 c 0
 135 105 174 18 252 18 c 0
 330 18 382 96 382 176 c 0
 382 258 346 338 268 338 c 0
EndSplineSet
EndChar

StartChar: seven
Encoding: 55 55 59
Width: 503
VWidth: 0
Flags: HW
HStem: 292 61<104.645 378.998>
LayerCount: 3
Fore
SplineSet
260 353 m 0
 324 353 353 354 419 355 c 0
 426 355 428 349 428 342 c 0
 428 335 425 327 424 323 c 0
 393 235 228 -97 176 -294 c 0
 174 -302 169 -309 160 -309 c 2
 96 -309 l 2
 89 -309 87 -304 87 -298 c 0
 87 -293 89 -287 91 -282 c 0
 248 38 266 74 374 270 c 0
 377 275 379 281 379 285 c 0
 379 289 376 289 366 290 c 0
 332 292 310 292 281 292 c 2
 188 292 l 2
 119 292 113 287 86 244 c 0
 83 241 81 237 74 237 c 2
 69 237 l 2
 59 237 58 244 58 250 c 0
 58 255 60 259 61 262 c 2
 105 349 l 2
 108 354 111 356 118 356 c 0
 131 356 168 353 260 353 c 0
EndSplineSet
EndChar

StartChar: eight
Encoding: 56 56 60
Width: 460
VWidth: 0
Flags: HW
HStem: -13 34<157.116 288.25> 334 59<219.082 238.928> 640 30<180.429 300.505>
VStem: 40 58<71.6451 232.863> 67 67<477.02 594.475> 344 55<471.007 606.482> 350 60<77.7844 224.502>
LayerCount: 3
Fore
SplineSet
240 670 m 0xe8
 324 670 399 622 399 545 c 0xec
 399 458 333 419 284 382 c 0
 276 376 269 376 288 361 c 0
 328 331 410 271 410 164 c 0
 410 62 341 -13 222 -13 c 0
 108 -13 40 58 40 151 c 0xf2
 40 242 112 300 157 330 c 0
 175 342 183 346 183 350 c 0
 183 354 176 358 163 369 c 0
 128 399 67 460 67 518 c 0
 67 618 155 670 240 670 c 0xe8
273 411 m 0
 301 436 344 485 344 546 c 0
 344 598 308 640 240 640 c 0
 170 640 134 597 134 540 c 0
 134 478 190 438 224 411 c 0
 239 399 245 393 250 393 c 0
 255 393 260 399 273 411 c 0
184 317 m 0
 152 291 98 236 98 156 c 0
 98 61 155 21 222 21 c 0
 311 21 350 90 350 164 c 0xf2
 350 228 271 291 231 319 c 0
 216 329 212 334 208 334 c 0
 204 334 199 329 184 317 c 0
EndSplineSet
EndChar

StartChar: nine
Encoding: 57 57 61
Width: 492
VWidth: 0
Flags: HW
HStem: 212 100<350.438 433.562>
VStem: 342 100<220.438 303.562>
LayerCount: 3
Fore
SplineSet
250 370 m 0
 372 370 432 250 432 147 c 0
 432 -145 259 -294 54 -306 c 0
 46 -306 42 -301 42 -286 c 0
 42 -278 45 -271 52 -270 c 0
 161 -260 252 -190 308 -99 c 0
 335 -54 351 -6 361 25 c 0
 364 33 366 41 366 45 c 0
 366 47 366 48 364 48 c 0
 362 48 358 46 353 42 c 0
 322 16 270 -11 215 -11 c 0
 107 -11 50 76 50 173 c 0
 50 285 131 370 250 370 c 0
364 182 m 0
 364 259 330 339 251 339 c 0
 162 339 121 259 121 178 c 0
 121 100 148 17 233 17 c 0
 326 17 364 102 364 182 c 0
EndSplineSet
EndChar

StartChar: .notdef
Encoding: 65536 -1 63
Width: 500
Flags: W
HStem: 0 50<100 400> 483 50<100 400>
VStem: 50 50<50 483> 400 50<50 483>
LayerCount: 3
Fore
SplineSet
50 0 m 1
 50 533 l 1
 450 533 l 1
 450 0 l 1
 50 0 l 1
100 50 m 1
 400 50 l 1
 400 483 l 1
 100 483 l 1
 100 50 l 1
EndSplineSet
EndChar

StartChar: period
Encoding: 46 46 64
Width: 254
VWidth: 0
Flags: HW
LayerCount: 3
Fore
SplineSet
80 38 m 0
 80 63 102 85 127 85 c 0
 152 85 174 63 174 38 c 0
 174 13 152 -9 127 -9 c 0
 102 -9 80 13 80 38 c 0
EndSplineSet
EndChar

StartChar: colon
Encoding: 58 58 65
Width: 254
VWidth: 0
Flags: HW
LayerCount: 3
Fore
SplineSet
80 313 m 0
 80 338 102 360 127 360 c 0
 152 360 174 338 174 313 c 0
 174 288 152 266 127 266 c 0
 102 266 80 288 80 313 c 0
80 38 m 0
 80 63 102 85 127 85 c 0
 152 85 174 63 174 38 c 0
 174 13 152 -9 127 -9 c 0
 102 -9 80 13 80 38 c 0
EndSplineSet
EndChar

StartChar: comma
Encoding: 44 44 66
Width: 242
VWidth: 0
Flags: HW
LayerCount: 3
Fore
SplineSet
83 -114 m 0
 74 -114 70 -106 70 -101 c 0
 70 -91 86 -82 95 -72 c 0
 109 -58 124 -36 124 -12 c 0
 124 15 64 17 64 58 c 0
 64 81 85 96 106 96 c 0
 140 96 166 59 166 21 c 0
 166 -43 129 -83 106 -101 c 0
 99 -107 93 -114 83 -114 c 0
EndSplineSet
EndChar

StartChar: semicolon
Encoding: 59 59 67
Width: 242
VWidth: 0
Flags: HW
LayerCount: 3
Fore
SplineSet
83 -114 m 0
 74 -114 70 -106 70 -101 c 0
 70 -91 86 -82 95 -72 c 0
 109 -58 124 -36 124 -12 c 0
 124 15 64 17 64 58 c 0
 64 81 85 96 106 96 c 0
 140 96 166 59 166 21 c 0
 166 -43 129 -83 106 -101 c 0
 99 -107 93 -114 83 -114 c 0
68 313 m 0
 68 338 90 360 115 360 c 0
 140 360 162 338 162 313 c 0
 162 288 140 266 115 266 c 0
 90 266 68 288 68 313 c 0
EndSplineSet
EndChar

StartChar: hyphen
Encoding: 45 45 68
Width: 332
VWidth: 0
Flags: HW
LayerCount: 3
Fore
SplineSet
66 196 m 2
 271 225 l 2
 274 225 276 226 278 226 c 0
 286 226 288 222 288 215 c 2
 288 176 l 2
 288 166 276 165 266 164 c 2
 62 134 l 2
 59 133 57 133 54 133 c 0
 49 133 44 135 44 143 c 2
 44 181 l 2
 44 193 57 195 66 196 c 2
EndSplineSet
EndChar

StartChar: exclam
Encoding: 33 33 69
Width: 254
VWidth: 0
Flags: HW
LayerCount: 3
Fore
SplineSet
130 666 m 0
 171 666 175 626 175 587 c 0
 175 568 157 395 153 146 c 0
 152.791191599 133.001677068 143 127 133 127 c 0
 123 127 113.338610593 132.004095497 113 146 c 0
 110 270 88 556 88 582 c 0
 88 636 94 666 130 666 c 0
80 38 m 0
 80 63 102 85 127 85 c 0
 152 85 174 63 174 38 c 0
 174 13 152 -9 127 -9 c 0
 102 -9 80 13 80 38 c 0
EndSplineSet
EndChar

StartChar: question
Encoding: 63 63 70
Width: 354
VWidth: 0
Flags: HW
LayerCount: 3
Fore
SplineSet
102 138 m 2
 102 342 l 2
 102 353 109 360 120 360 c 0
 134 360 144 356 160 356 c 0
 224 356 279 402 279 466 c 0
 279 543 215 590 130 600 c 0
 112 602 95 609 95 628 c 0
 95 647 111 661 131 661 c 0
 212 661 310 577 310 472 c 0
 310 383 270 300 164 294 c 0
 153 293 140 289 140 278 c 2
 140 139 l 2
 140 130 130 128 119 128 c 0
 111 128 102 129 102 138 c 2
80 38 m 0
 80 63 102 85 127 85 c 0
 152 85 174 63 174 38 c 0
 174 13 152 -9 127 -9 c 0
 102 -9 80 13 80 38 c 0
EndSplineSet
EndChar

StartChar: parenleft
Encoding: 40 40 71
Width: 372
VWidth: 0
Flags: HW
LayerCount: 3
Fore
SplineSet
323 658 m 0
 329 658 330 650 330 640 c 2
 330 624 l 2
 330 616 329 614 325 610 c 0
 251 548 121 392 121 180 c 0
 121 -8 185 -149 326 -255 c 0
 330 -258 330 -262 330 -268 c 2
 330 -292 l 2
 330 -301 329 -307 324 -307 c 0
 302 -307 58 -147 58 168 c 0
 58 476 315 658 323 658 c 0
EndSplineSet
EndChar

StartChar: parenright
Encoding: 41 41 72
Width: 372
VWidth: 0
Flags: HW
LayerCount: 3
Fore
SplineSet
65 658 m 0
 73 658 330 476 330 168 c 0
 330 -147 86 -307 64 -307 c 0
 59 -307 58 -301 58 -292 c 2
 58 -268 l 2
 58 -262 58 -258 62 -255 c 0
 203 -149 267 -8 267 180 c 0
 267 392 137 548 63 610 c 0
 59 614 58 616 58 624 c 2
 58 640 l 2
 58 650 59 658 65 658 c 0
EndSplineSet
EndChar

StartChar: asterisk
Encoding: 42 42 73
Width: 472
VWidth: 0
Flags: HW
HStem: 370 57<45.0688 122.474 346.865 422.758> 499 59<47.709 126.366 349.445 423.611>
VStem: 139 60<272.972 350.077 583.275 653.588> 274 58<272.94 343.817 576.031 653.09>
LayerCount: 3
Fore
SplineSet
303 654 m 0
 319 654 332 642 332 624 c 0
 332 605 286 537 275 517 c 0
 271 509 268 502 268 497 c 0
 268 492 271 488 276 488 c 0
 279 488 284 490 290 494 c 0
 310 507 344 537 373 551 c 0
 382 555 391 558 399 558 c 0
 414 558 425 550 425 528 c 0
 425 509 400 504 384 499 c 0
 367 494 277 474 277 460 c 0
 277 455 282 453 294 450 c 0
 336 438 360 435 390 427 c 0
 406 423 424 418 424 397 c 0
 424 382 414 370 401 370 c 0
 374 370 300 421 278 432 c 0
 272 435 267 436 264 436 c 0
 260 436 258 434 258 430 c 0
 258 426 260 421 264 415 c 0
 278 394 304 355 320 328 c 0
 326 318 332 307 332 297 c 0
 332 283 322 272 300 272 c 0
 289 272 277 280 274 290 c 0
 257 338 254 376 243 408 c 0
 240 418 237 423 233 423 c 0
 229 423 224 417 222 406 c 0
 213 366 208 335 199 301 c 0
 194 283 191 272 167 272 c 0
 150 272 139 286 139 300 c 0
 139 325 186 387 197 414 c 0
 200 421 203 429 203 435 c 0
 203 438 202 441 199 441 c 0
 196 441 192 439 185 434 c 0
 162 418 119 387 92 373 c 0
 84 369 75 367 68 367 c 0
 54 367 43 375 43 394 c 0
 43 415 61 425 78 428 c 0
 110 434 143 445 170 453 c 0
 184 457 194 463 194 468 c 0
 194 477 187 477 172 480 c 0
 139 487 118 489 89 497 c 0
 71 502 46 507 46 530 c 0
 46 544 55 560 71 560 c 0
 100 560 163 511 184 500 c 0
 190 497 196 495 201 495 c 0
 207 495 210 498 210 503 c 0
 210 506 209 510 206 515 c 0
 188 549 139 605 139 626 c 0
 139 642 151 655 168 655 c 0
 198 655 199 623 204 604 c 0
 211 577 217 554 225 532 c 0
 231 517 233 508 239 508 c 0
 244 508 250 516 253 532 c 0
 261 570 267 598 277 633 c 0
 281 645 287 654 303 654 c 0
EndSplineSet
EndChar

StartChar: dagger
Encoding: 8224 8224 74
Width: 560
VWidth: 0
Flags: W
HStem: 324 85<59.3722 107.875 149.366 157.903 408.131 417.55 458.345 508.061> 324 50<103.025 157.643> 368 12<206 245 323 329>
VStem: 238 83<54.5883 327.256 579.034 648.711> 239 90<400.491 558.546> 253 55<-146 77.8977 298.286 358.38 385.062 482.463> 262 40<526.342 607.077>
LayerCount: 3
Fore
SplineSet
438 375 m 0x24
 460 375 460 405 487 405 c 0
 507 405 515 386 515 371 c 0
 515 342 491 320 466 320 c 0
 405 320 409 368 366 368 c 0
 323 368 304 335 304 328 c 0
 304 312 321 304 321 297 c 0x30
 321 281 311 31 302 -140 c 0x22
 302 -146 295 -146 289 -146 c 2
 265 -146 l 2
 258 -146 250 -145 250 -138 c 0
 249 41 238 272 238 298 c 0
 238 304 255 316 255 329 c 0
 255 352 223 366 206 366 c 0
 162 366 151 324 108 324 c 0x50
 73 324 48 347 48 378 c 16
 48 397 62 409 79 409 c 0x90
 108 409 106 374 123 374 c 0
 149 374 156 408 192 408 c 0
 210 408 233 385 245 385 c 0
 251 385 253 392 253 399 c 0x44
 253 431 239 451 239 484 c 0x48
 239 532 262 559 262 572 c 0
 262 582 242 600 242 620 c 0
 242 642 263 655 283 655 c 0
 304 655 323 641 323 615 c 0
 323 596 302 578 302 573 c 0x42
 302 563 329 526 329 490 c 0x48
 329 448 308 428 308 389 c 0
 308 383 308 380 313 380 c 0
 329 380 361 406 385 406 c 0
 409 406 422 375 438 375 c 0x24
EndSplineSet
EndChar

StartChar: daggerdbl
Encoding: 8225 8225 75
Width: 493
VWidth: 0
Flags: HW
HStem: 11 61<54.2462 123.674 348.326 417.754> 26 8<124 187> 448 61<54.2462 123.674 348.326 417.754> 486 8<285 348>
VStem: 207 58<-139.781 -62.5236 34.0022 231.015 288.985 485.998 582.524 659.781> 220 35<-111.2 -1.79691 521.797 621.977> 225 21<173.941 242.921 277.012 340.977>
LayerCount: 3
Fore
SplineSet
205 68 m 0x48
 208 127 213 170 225 234 c 0
 226 240 231 243 237 243 c 0
 243 243 245 239 246 234 c 0x42
 258 170 263 127 267 68 c 0
 267 62 265 52 265 49 c 0
 265 35 269 34 281 34 c 0x48
 312 34 337 53 362 66 c 0
 371 70 380 72 388 72 c 0
 409 72 419 57 419 42 c 0
 419 27 409 11 389 11 c 0x88
 380 11 370 14 363 19 c 0
 359 22 355 26 348 26 c 0
 341 26 302 11 282 6 c 0
 273 4 270 3 268 -4 c 0
 261 -25 255 -40 255 -60 c 0
 255 -83 271 -92 271 -114 c 0
 271 -131 256 -141 238 -141 c 0
 221 -141 206 -129 206 -112 c 0
 206 -95 220 -73 220 -62 c 0
 220 -35 212 -18 205 -1 c 0
 202 5 199 4 190 6 c 0
 170 11 131 26 124 26 c 0x44
 117 26 113 23 109 20 c 0
 102 15 92 11 83 11 c 0
 63 11 53 27 53 42 c 0
 53 57 63 72 84 72 c 0x84
 92 72 101 70 110 66 c 0
 133 54 154 34 187 34 c 0
 204 34 207 37 207 47 c 0
 207 53 205 62 205 68 c 0x48
267 452 m 0
 264 393 259 350 247 286 c 0
 246 281 241 277 235 277 c 0
 229 277 227 281 226 286 c 0
 214 350 209 393 205 452 c 1
 207 471 l 2
 209 485 203 486 191 486 c 0x18
 160 486 135 467 110 454 c 0
 101 450 92 448 84 448 c 0
 63 448 53 463 53 478 c 0
 53 493 63 509 83 509 c 0x28
 92 509 102 505 109 500 c 0
 113 497 117 494 124 494 c 0
 131 494 170 509 190 514 c 0
 199 516 202 517 204 524 c 0
 211 545 217 560 217 580 c 0
 217 603 201 612 201 634 c 0
 201 651 216 661 234 661 c 0
 251 661 265 649 265 632 c 0
 265 615 252 593 252 582 c 0
 252 555 260 538 267 521 c 0
 270 515 273 516 282 514 c 0
 302 509 341 494 348 494 c 0x18
 355 494 359 497 363 500 c 0
 370 505 380 509 389 509 c 0
 409 509 419 493 419 478 c 0
 419 463 409 448 388 448 c 0x28
 380 448 371 450 362 454 c 0
 339 466 318 486 285 486 c 0
 268 486 265 483 265 473 c 0x18
 265 467 267 458 267 452 c 0
EndSplineSet
Layer: 2
SplineSet
245 234 m 4x42
 257 170 262 127 266 68 c 4
 266 64 264 57 264 49 c 4
 264 34 269 33 281 33 c 4x48
 312 33 337 52 362 65 c 4
 371 69 380 71 388 71 c 4
 408 71 418 57 418 42 c 4
 418 27 408 12 389 12 c 4x88
 380 12 371 15 364 20 c 4
 360 23 355 27 348 27 c 4
 340 27 302 12 282 7 c 4
 273 5 269 3 267 -4 c 4
 260 -25 254 -40 254 -60 c 4x44
 254 -84 270 -93 270 -114 c 4
 270 -130 256 -140 238 -140 c 4
 221 -140 208 -128 208 -112 c 4x48
 208 -95 221 -74 221 -62 c 4
 221 -35 213 -18 206 -1 c 4
 203 5 199 5 190 7 c 4
 170 12 132 27 124 27 c 4x44
 117 27 112 24 108 21 c 4
 101 16 92 12 83 12 c 4
 64 12 54 27 54 42 c 4
 54 57 64 71 84 71 c 4x84
 92 71 101 69 110 65 c 4
 133 53 154 33 187 33 c 4
 204 33 208 36 208 47 c 4x48
 208 53 206 62 206 68 c 4
 209 127 214 170 226 234 c 4
 227 239 231 242 237 242 c 4
 242 242 244 239 245 234 c 4x42
227 286 m 4
 215 350 210 393 206 452 c 4
 206 456 208 463 208 471 c 4
 208 486 203 487 191 487 c 4x18
 160 487 135 468 110 455 c 4
 101 451 92 449 84 449 c 4
 64 449 54 463 54 478 c 4
 54 493 64 508 83 508 c 4x28
 92 508 101 504 108 499 c 4
 112 496 117 493 124 493 c 4
 132 493 170 508 190 513 c 4
 199 515 203 517 205 524 c 4
 212 545 218 560 218 580 c 4
 218 604 202 613 202 634 c 4
 202 650 216 660 234 660 c 4
 251 660 264 648 264 632 c 4
 264 615 251 594 251 582 c 4
 251 555 259 538 266 521 c 4
 269 515 273 515 282 513 c 4
 302 508 340 493 348 493 c 4x18
 355 493 360 496 364 499 c 4
 371 504 380 508 389 508 c 4
 408 508 418 493 418 478 c 4
 418 463 408 449 388 449 c 4x28
 380 449 371 451 362 455 c 4
 339 467 318 487 285 487 c 4x18
 268 487 264 484 264 473 c 4
 264 467 266 458 266 452 c 4
 263 393 258 350 246 286 c 4
 245 281 241 278 235 278 c 4
 230 278 228 281 227 286 c 4
EndSplineSet
EndChar

StartChar: paragraph
Encoding: 182 182 76
Width: 578
VWidth: 0
Flags: HW
HStem: 625 33<337.952 436.572 474.384 537.998>
VStem: 43 291<303.174 499.793> 281 51<-298.937 -69.1202> 297 37<-69.1202 143.999> 422 50<-298.422 -62.9679> 439 35<224.339 623.661>
LayerCount: 3
Fore
SplineSet
474 595 m 2xc4
 474 414 l 2xc4
 474 254 472 -255 472 -280 c 0
 472 -297 461 -299 449 -299 c 24
 436 -298 422 -295 422 -278 c 0x88
 422 -253 439 306 439 414 c 2
 439 589 l 2
 439 621 427 625 409 625 c 2
 370 625 l 2
 347 625 334 622 334 589 c 2x94
 334 414 l 2xc0
 334 254 332 -255 332 -280 c 0
 332 -297 327 -299 307 -299 c 0
 290 -299 281 -297 281 -280 c 0xa0
 281 -247 295 -12 297 131 c 0x90
 297 139 297 142 281 144 c 0xa0
 224 152 43 212 43 405 c 0
 43 580 214 658 376 658 c 2
 519 658 l 2
 536 658 538 653 538 641 c 0
 538 628 536 625 519 625 c 2
 500 625 l 2
 475 625 474 620 474 595 c 2xc4
EndSplineSet
EndChar

StartChar: section
Encoding: 167 167 77
Width: 452
VWidth: 0
Flags: HW
LayerCount: 3
Fore
SplineSet
246 575 m 0
 259 586 261 587 261 598 c 0
 261 613 239 625 219 625 c 0
 173 625 133 597 133 552 c 0
 133 513 154 481 182 449 c 0
 227 399 293 354 340 301 c 0
 370 267 395 234 395 184 c 0
 395 124 364 95 345 83 c 0
 332 75 334 73 340 58 c 0
 348 41 357 15 357 -20 c 0
 357 -101 277 -146 204 -146 c 0
 151 -146 90 -126 90 -73 c 0
 90 -41 115 -24 148 -24 c 0
 162 -24 175 -30 186 -43 c 0
 190 -48 189 -56 182 -57 c 0
 169 -59 143 -63 143 -82 c 0
 143 -109 179 -117 207 -117 c 0
 276 -117 311 -70 311 -14 c 0
 311 49 248 102 189 156 c 0
 129 211 66 263 66 342 c 0
 66 391 86 417 105 432 c 0
 112 438 114 441 114 444 c 0
 114 448 111 453 106 463 c 0
 98 478 87 504 87 541 c 0
 87 615 153 656 220 656 c 0
 271 656 329 632 329 584 c 0
 329 561 305 545 284 545 c 0
 268 545 260 549 249 557 c 0
 244 561 241 571 246 575 c 0
127 409 m 0
 115 401 100 385 100 352 c 0
 100 314 138 275 171 244 c 0
 216 200 263 157 307 111 c 0
 313 105 316 102 320 102 c 0
 323 102 327 105 334 109 c 0
 346 115 366 135 366 168 c 0
 366 189 352 215 327 243 c 0
 295 280 249 320 211 352 c 0
 186 373 165 393 153 405 c 0
 147 411 144 415 140 415 c 0
 137 415 133 413 127 409 c 0
EndSplineSet
Layer: 2
SplineSet
262 598 m 4xea80
 262 614 239 626 219 626 c 4
 173 626 132 598 132 552 c 4xea80
 132 513 153 480 181 448 c 4
 226 398 292 353 339 300 c 4
 369 266 394 234 394 184 c 4
 394 124 363 97 344 84 c 4
 336 79 332 77 332 74 c 4
 332 71 335 67 339 58 c 4
 347 41 356 15 356 -20 c 4
 356 -100 277 -145 204 -145 c 4
 151 -145 91 -125 91 -73 c 4
 91 -42 115 -25 148 -25 c 4
 162 -25 174 -31 185 -44 c 4
 189 -49 188 -55 182 -56 c 4
 169 -58 142 -62 142 -82 c 4xe580
 142 -110 179 -118 207 -118 c 4
 277 -118 312 -70 312 -14 c 4
 312 50 249 103 190 157 c 4
 130 212 67 264 67 342 c 4xf180
 67 391 87 416 106 431 c 4
 114 438 118 440 118 443 c 4
 118 447 113 451 107 463 c 4
 99 478 88 504 88 541 c 4
 88 614 153 655 220 655 c 4
 271 655 328 631 328 584 c 4
 328 562 305 546 284 546 c 4
 268 546 261 550 250 558 c 4
 245 562 243 571 247 574 c 4
 260 585 262 587 262 598 c 4xea80
126 410 m 4
 114 402 99 385 99 352 c 4xf280
 99 313 137 274 170 243 c 4
 215.310196881 199.322603006 262 156 306 110 c 4
 313.347797516 102.318211688 315 99 318 99 c 4
 321 99 325 103 334 108 c 4
 346 114 367 135 367 168 c 4
 367 189 353 216 328 244 c 4
 296 281 250 321 212 353 c 4
 187 374 166 394 154 406 c 4
 148 412 146 416 141 416 c 4
 138 416 133 415 126 410 c 4
EndSplineSet
EndChar

StartChar: bracketleft
Encoding: 91 91 78
Width: 270
VWidth: 0
Flags: HW
HStem: -210 22<110.23 241.946> 631 21<116.233 241> 633 26<116.191 248.996>
VStem: 59 57<-187.588 630.106>
LayerCount: 3
Fore
SplineSet
87 652 m 2xd0
 241 659 l 2
 246 659 249 656 249 646 c 0
 249 636 244 633 232 633 c 2xb0
 132 631 l 2
 117 631 116 630 116 612 c 2
 110 -166 l 2
 110 -188 110 -188 132 -188 c 2
 224 -188 l 2
 238 -188 242 -188 242 -201 c 0
 242 -210 239 -212 234 -212 c 2
 79 -210 l 2
 59 -210 55 -204 54 -184 c 0
 54 -176 59 -33 59 186 c 0
 59 282 60 380 60 476 c 0
 60 527 59 609 59 629 c 0
 59 653 66 651 87 652 c 2xd0
EndSplineSet
EndChar

StartChar: bracketright
Encoding: 93 93 79
Width: 270
VWidth: 0
Flags: HW
HStem: -215 22<25.0545 152.717> 629 25<29.0174 158.963>
VStem: 153 56<-192.924 165.129> 159 57<409.226 630.906>
LayerCount: 3
Fore
SplineSet
197 653 m 0xd0
 213 653 216 650 216 629 c 0xd0
 214 422 208 151 208 -52 c 0
 208 -136 209 -187 209 -192 c 0
 208 -212 204 -213 184 -213 c 2
 33 -215 l 2
 28 -215 25 -215 25 -206 c 0
 25 -193 29 -193 43 -193 c 2
 131 -193 l 2
 153 -193 153 -191 153 -171 c 2xe0
 159 612 l 2
 159 630 158 631 143 631 c 2
 46 629 l 2
 34 629 29 631 29 641 c 0
 29 651 35 654 40 654 c 0
 92 653 144 653 197 653 c 0xd0
EndSplineSet
EndChar

StartChar: quoteright
Encoding: 8217 8217 80
Width: 206
VWidth: 0
Flags: HW
HStem: 459 203<72 79>
VStem: 113 43<509.948 608>
LayerCount: 3
Fore
SplineSet
95 662 m 0
 134 662 155 626 155 583 c 0
 155 527 130 494 98 473 c 0
 91 469 79 459 69 459 c 0
 63 459 56 465 56 472 c 0
 56 483 76 492 86 500 c 0
 102 513 114 524 114 547 c 0
 114 567 103 578 87 585 c 0
 70 593 52 604 52 626 c 0
 52 649 72 662 95 662 c 0
EndSplineSet
EndChar

StartChar: quoteleft
Encoding: 8216 8216 81
Width: 206
VWidth: 0
Flags: HW
LayerCount: 3
Fore
SplineSet
112 459 m 0
 73 459 52 495 52 538 c 0
 52 594 77 627 109 648 c 0
 116 652 128 662 138 662 c 0
 144 662 151 656 151 649 c 0
 151 638 131 629 121 621 c 0
 105 608 93 597 93 574 c 0
 93 554 104 543 120 536 c 0
 137 528 155 517 155 495 c 0
 155 472 135 459 112 459 c 0
EndSplineSet
EndChar

StartChar: quotedblleft
Encoding: 8220 8220 82
Width: 366
VWidth: 0
Flags: HW
LayerCount: 3
Fore
SplineSet
112 459 m 0
 73 459 52 495 52 538 c 0
 52 594 77 627 109 648 c 0
 116 652 128 662 138 662 c 0
 144 662 151 656 151 649 c 0
 151 638 131 629 121 621 c 0
 105 608 93 597 93 574 c 0
 93 554 104 543 120 536 c 0
 137 528 155 517 155 495 c 0
 155 472 135 459 112 459 c 0
262 459 m 0
 223 459 202 495 202 538 c 0
 202 594 227 627 259 648 c 0
 266 652 278 662 288 662 c 0
 294 662 301 656 301 649 c 0
 301 638 281 629 271 621 c 0
 255 608 243 597 243 574 c 0
 243 554 254 543 270 536 c 0
 287 528 305 517 305 495 c 0
 305 472 285 459 262 459 c 0
EndSplineSet
EndChar

StartChar: quotedblright
Encoding: 8221 8221 83
Width: 354
VWidth: 0
Flags: HW
LayerCount: 3
Fore
SplineSet
245 662 m 0
 284 662 305 626 305 583 c 0
 305 527 280 494 248 473 c 0
 241 469 229 459 219 459 c 0
 213 459 206 465 206 472 c 0
 206 483 226 492 236 500 c 0
 252 513 264 524 264 547 c 0
 264 567 253 578 237 585 c 0
 220 593 202 604 202 626 c 0
 202 649 222 662 245 662 c 0
95 662 m 0
 134 662 155 626 155 583 c 0
 155 527 130 494 98 473 c 0
 91 469 79 459 69 459 c 0
 63 459 56 465 56 472 c 0
 56 483 76 492 86 500 c 0
 102 513 114 524 114 547 c 0
 114 567 103 578 87 585 c 0
 70 593 52 604 52 626 c 0
 52 649 72 662 95 662 c 0
EndSplineSet
EndChar
